<?xml version="1.0" encoding="UTF-8" standalone="no"?>
<!-- Created with Inkscape (http://www.inkscape.org/) -->

<svg
   xmlns:dc="http://purl.org/dc/elements/1.1/"
   xmlns:cc="http://creativecommons.org/ns#"
   xmlns:rdf="http://www.w3.org/1999/02/22-rdf-syntax-ns#"
   xmlns:svg="http://www.w3.org/2000/svg"
   xmlns="http://www.w3.org/2000/svg"
   xmlns:sodipodi="http://sodipodi.sourceforge.net/DTD/sodipodi-0.dtd"
   xmlns:inkscape="http://www.inkscape.org/namespaces/inkscape"
   width="45.860001mm"
   height="39.364971mm"
   viewBox="0 0 45.860001 39.364971"
   version="1.1"
   id="svg940"
   inkscape:version="0.92.5 (2060ec1f9f, 2020-04-08)"
   sodipodi:docname="upload-icon.svg">
  <defs
     id="defs934" />
  <sodipodi:namedview
     id="base"
     pagecolor="#ffffff"
     bordercolor="#666666"
     borderopacity="1.0"
     inkscape:pageopacity="0.0"
     inkscape:pageshadow="2"
     inkscape:zoom="1.2167969"
     inkscape:cx="-23.691768"
     inkscape:cy="30.34555"
     inkscape:document-units="mm"
     inkscape:current-layer="layer1"
     showgrid="false"
     fit-margin-top="0"
     fit-margin-left="0"
     fit-margin-right="0"
     fit-margin-bottom="0"
     inkscape:window-width="1920"
     inkscape:window-height="1033"
     inkscape:window-x="0"
     inkscape:window-y="0"
     inkscape:window-maximized="1" />
  <metadata
     id="metadata937">
    <rdf:RDF>
      <cc:Work
         rdf:about="">
        <dc:format>image/svg+xml</dc:format>
        <dc:type
           rdf:resource="http://purl.org/dc/dcmitype/StillImage" />
        <dc:title></dc:title>
      </cc:Work>
    </rdf:RDF>
  </metadata>
  <g
     inkscape:label="Layer 1"
     inkscape:groupmode="layer"
     id="layer1"
     transform="translate(-71.005151,-117.49729)">
    <path
       inkscape:connector-curvature="0"
       style="opacity:1;fill:#232325;fill-opacity:1;fill-rule:evenodd;stroke:none;stroke-width:2.56296206;stroke-linecap:round;stroke-linejoin:round;stroke-miterlimit:4;stroke-dasharray:none;stroke-dashoffset:0;stroke-opacity:1;paint-order:fill markers stroke"
       d="m 116.86515,143.65141 v 6.05168 c 0,1.32206 -1.06433,2.38639 -2.38639,2.38639 -1.32206,0 -2.38639,-1.06433 -2.38639,-2.38639 v -6.05168 c 0,-1.32206 1.06433,-2.38639 2.38639,-2.38639 1.32206,0 2.38639,1.06433 2.38639,2.38639 z"
       id="rect859"
       inkscape:export-xdpi="96"
       inkscape:export-ydpi="96" />
    <path
       inkscape:connector-curvature="0"
       style="opacity:1;fill:#232325;fill-opacity:1;fill-rule:evenodd;stroke:none;stroke-width:2.56296206;stroke-linecap:round;stroke-linejoin:round;stroke-miterlimit:4;stroke-dasharray:none;stroke-dashoffset:0;stroke-opacity:1;paint-order:fill markers stroke"
       d="m 75.777937,143.65141 v 6.05168 c 0,1.32206 -1.064332,2.38639 -2.386393,2.38639 -1.322061,0 -2.386392,-1.06433 -2.386392,-2.38639 v -6.05168 c 0,-1.32206 1.064331,-2.38639 2.386392,-2.38639 1.322061,0 2.386393,1.06433 2.386393,2.38639 z"
       id="rect861"
       inkscape:export-xdpi="96"
       inkscape:export-ydpi="96" />
    <path
       inkscape:connector-curvature="0"
       style="opacity:1;fill:#232325;fill-opacity:1;fill-rule:evenodd;stroke:none;stroke-width:5.27540445;stroke-linecap:round;stroke-linejoin:round;stroke-miterlimit:4;stroke-dasharray:none;stroke-dashoffset:0;stroke-opacity:1;paint-order:fill markers stroke"
       d="M 114.47876,156.86226 H 73.391539 c -1.322059,0 -2.386388,-1.06433 -2.386388,-2.38639 0,-1.32206 1.064329,-2.38639 2.386388,-2.38639 h 41.087221 c 1.32206,0 2.38639,1.06433 2.38639,2.38639 0,1.32206 -1.06433,2.38639 -2.38639,2.38639 z"
       id="rect894"
       inkscape:export-xdpi="96"
       inkscape:export-ydpi="96" />
    <path
       inkscape:connector-curvature="0"
       style="opacity:1;fill:#232325;fill-opacity:1;fill-rule:evenodd;stroke:none;stroke-width:4.14721107;stroke-linecap:round;stroke-linejoin:round;stroke-miterlimit:4;stroke-dasharray:none;stroke-dashoffset:0;stroke-opacity:1;paint-order:fill markers stroke"
       d="m 95.645002,119.88368 v 23.56946 c 0,1.32206 -1.064331,2.38639 -2.386393,2.38639 -1.322061,0 -2.386392,-1.06433 -2.386392,-2.38639 v -23.56946 c 0,-1.32206 1.064331,-2.38639 2.386392,-2.38639 1.322062,0 2.386393,1.06433 2.386393,2.38639 z"
       id="rect896"
       inkscape:export-xdpi="96"
       inkscape:export-ydpi="96" />
    <path
       inkscape:connector-curvature="0"
       style="opacity:1;fill:#232325;fill-opacity:1;fill-rule:evenodd;stroke:none;stroke-width:3.26045609;stroke-linecap:round;stroke-linejoin:round;stroke-miterlimit:4;stroke-dasharray:none;stroke-dashoffset:0;stroke-opacity:1;paint-order:fill markers stroke"
       d="m 94.96115,121.59349 -9.012073,9.01208 c -0.934838,0.93483 -2.440027,0.93483 -3.374865,0 -0.934837,-0.93484 -0.934838,-2.44003 0,-3.37487 l 9.012073,-9.01207 c 0.934838,-0.93484 2.440028,-0.93484 3.374865,0 0.934838,0.93484 0.934838,2.44003 0,3.37486 z"
       id="rect898"
       inkscape:export-xdpi="96"
       inkscape:export-ydpi="96" />
    <path
       inkscape:connector-curvature="0"
       style="opacity:1;fill:#232325;fill-opacity:1;fill-rule:evenodd;stroke:none;stroke-width:3.26045609;stroke-linecap:round;stroke-linejoin:round;stroke-miterlimit:4;stroke-dasharray:none;stroke-dashoffset:0;stroke-opacity:1;paint-order:fill markers stroke"
       d="m 91.586285,121.59349 9.012075,9.01208 c 0.93484,0.93483 2.44003,0.93483 3.37486,0 0.93484,-0.93484 0.93484,-2.44003 0,-3.37487 l -9.012071,-9.01207 c -0.934838,-0.93484 -2.440027,-0.93484 -3.374865,0 -0.934838,0.93483 -0.934837,2.44002 10e-7,3.37486 z"
       id="rect900"
       inkscape:export-xdpi="96"
       inkscape:export-ydpi="96" />
    <path
       style="opacity:1;fill:#232325;fill-opacity:1;fill-rule:evenodd;stroke:none;stroke-width:2.56296206;stroke-linecap:round;stroke-linejoin:round;stroke-miterlimit:4;stroke-dasharray:none;stroke-dashoffset:0;stroke-opacity:1;paint-order:fill markers stroke"
       d="m 116.86515,146.02994 v 5.41223 3.1087 l -2.38639,2.30353 h -2.38639 v -10.82446 z"
       id="rect904"
       inkscape:connector-curvature="0"
       sodipodi:nodetypes="ccccccc"
       inkscape:export-xdpi="96"
       inkscape:export-ydpi="96" />
    <path
       sodipodi:nodetypes="ccccccc"
       inkscape:connector-curvature="0"
       id="path907"
       d="m 71.005153,146.03337 v 5.41223 3.1087 l 2.386392,2.30353 h 2.386392 v -10.82446 z"
       style="opacity:1;fill:#232325;fill-opacity:1;fill-rule:evenodd;stroke:none;stroke-width:2.56296206;stroke-linecap:round;stroke-linejoin:round;stroke-miterlimit:4;stroke-dasharray:none;stroke-dashoffset:0;stroke-opacity:1;paint-order:fill markers stroke"
       inkscape:export-xdpi="96"
       inkscape:export-ydpi="96" />
  </g>
</svg>
